# xmcd
#
# Track frame offsets:
#	183
#	18045
#	33308
#	42508
#	57483
#	72233
#	82778
#	100538
#	111220
#	122083
#	135833
#	153895
#	170545
#	188470
#
# Disc length: 2636 seconds
#
# Revision: 1
# Processed by: cddbd v1.5.2PL0 Copyright (c) Steve Scherf et al.
# Submitted via: audiograbber 1.83.01
#
DISCID=a10a4a0e
DTITLE=Various Artist - Country night (International Country Festival, Zürich 
DTITLE=1992/93)
DYEAR=1993
DGENRE=Country
TTITLE0=WRIGHT, MICHELLE - Take it like a man
TTITLE1=BOXCAR WILLIE - Boxcar Blues
TTITLE2=WYNETTE, TAMMY - Your good girl's gonna go bad
TTITLE3=EXILE - Keep it in the middle of the road
TTITLE4=KLEE, SUZANNE - California Blue
TTITLE5=DUANE EDDY - Rebel rouser
TTITLE6=BRACK, JOHN - Stolen love
TTITLE7=GOOD BROTHERS - Live fast, love hard, die young
TTITLE8=WYNETTE, TAMMY - I'm falling heart over mind
TTITLE9=TURNER, JEFF - Little alibis
TTITLE10=BRITTA T. - Desperado
TTITLE11=BOXCAR WILLIE - Boxcar's my home
TTITLE12=WRIGHT, MICHELLE - Do right by me
TTITLE13=DUANE EDDY - Forty miles of the road
EXTD=
EXTT0=
EXTT1=
EXTT2=
EXTT3=
EXTT4=
EXTT5=
EXTT6=
EXTT7=
EXTT8=
EXTT9=
EXTT10=
EXTT11=
EXTT12=
EXTT13=
PLAYORDER=
